<?xml version="1.0" encoding="UTF-8"?>
<svg id="Layer_2" data-name="Layer 2" xmlns="http://www.w3.org/2000/svg" xmlns:xlink="http://www.w3.org/1999/xlink" viewBox="0 0 897.85 189.57">
  <defs>
    <style>
      .cls-1 {
        fill: #0070b2;
      }

      .cls-2 {
        fill: none;
      }

      .cls-3 {
        fill: #737373;
      }

      .cls-4 {
        clip-path: url(#clippath);
      }
    </style>
    <clipPath id="clippath">
      <rect class="cls-2" x="877.13" y="63.87" width="20.72" height="20.72"/>
    </clipPath>
  </defs>
  <g id="KIPL">
    <g id="Intelligence_Pvt_Ltd" data-name="Intelligence Pvt Ltd">
      <path class="cls-3" d="M130.2,188.97v-29.69h6.66v29.69h-6.66Z"/>
      <path class="cls-3" d="M152.13,188.97v-29.69h4.55l20.13,17.5c.69.58,1.29,1.13,1.81,1.64.52.52,1,1.04,1.43,1.59-.11-1.67-.18-2.85-.22-3.54-.04-.69-.05-1.23-.05-1.6v-15.59h5.98v29.69h-4.55l-20.99-18.34c-.51-.47-.95-.89-1.33-1.26-.38-.37-.73-.76-1.06-1.15.09.92.16,1.78.2,2.6.04.81.07,1.52.07,2.12v16.04h-5.98Z"/>
      <path class="cls-3" d="M214.37,164.58v24.38h-6.66v-24.38h-13.12v-5.31h32.95v5.31h-13.18Z"/>
      <path class="cls-3" d="M236.41,188.97v-29.69h29.27v5.06h-22.62v6.63h13.2v5.06h-13.2v7.36h22.89v5.59h-29.54Z"/>
      <path class="cls-3" d="M278.96,188.97v-29.69h6.66v24.1h21.45v5.59h-28.11Z"/>
      <path class="cls-3" d="M317.53,188.97v-29.69h6.66v24.1h21.45v5.59h-28.11Z"/>
      <path class="cls-3" d="M356.1,188.97v-29.69h6.66v29.69h-6.66Z"/>
      <path class="cls-3" d="M404.92,164.58h-20.78v18.79h20.78v-6.6h-10.88v-5.06h17.34v10.23c0,2.72-.49,4.56-1.46,5.55s-2.85,1.47-5.63,1.47h-19.72c-2.78,0-4.65-.49-5.63-1.47s-1.46-2.83-1.46-5.55v-15.65c0-2.7.49-4.54,1.46-5.53.97-.99,2.85-1.49,5.63-1.49h19.72c2.74,0,4.61.49,5.6,1.46.99.97,1.49,2.73,1.49,5.28v.67l-6.47,1.21v-3.31Z"/>
      <path class="cls-3" d="M426.17,188.97v-29.69h29.27v5.06h-22.62v6.63h13.2v5.06h-13.2v7.36h22.89v5.59h-29.54Z"/>
      <path class="cls-3" d="M468.67,188.97v-29.69h4.55l20.13,17.5c.69.58,1.29,1.13,1.81,1.64.52.52,1,1.04,1.43,1.59-.11-1.67-.18-2.85-.22-3.54-.04-.69-.05-1.23-.05-1.6v-15.59h5.98v29.69h-4.55l-20.99-18.34c-.51-.47-.95-.89-1.33-1.26-.38-.37-.73-.76-1.06-1.15.09.92.16,1.78.2,2.6.04.81.07,1.52.07,2.12v16.04h-5.98Z"/>
      <path class="cls-3" d="M541.59,164.58h-17.94v18.79h17.94v-6.38l6.65,1.43v3.51c0,2.72-.49,4.56-1.47,5.55s-2.85,1.47-5.61,1.47h-17.07c-2.78,0-4.65-.49-5.63-1.47s-1.46-2.83-1.46-5.55v-15.65c0-2.7.49-4.54,1.46-5.53.97-.99,2.85-1.49,5.63-1.49h17.07c2.76,0,4.63.5,5.61,1.49.98.99,1.47,2.84,1.47,5.53v2.81l-6.65,1.1v-5.62Z"/>
      <path class="cls-3" d="M562.69,188.97v-29.69h29.27v5.06h-22.62v6.63h13.2v5.06h-13.2v7.36h22.89v5.59h-29.54Z"/>
      <path class="cls-3" d="M627.41,188.97v-29.69h24.46c2.27,0,3.92.45,4.94,1.36,1.02.91,1.53,2.37,1.53,4.4v6.63c0,2-.51,3.46-1.53,4.37-1.02.91-2.66,1.36-4.94,1.36h-17.91v11.57h-6.55ZM648.92,164.41h-14.96v7.87h14.96c1.15,0,1.94-.17,2.37-.52.42-.35.64-.96.64-1.84v-3.17c0-.86-.21-1.46-.64-1.81-.42-.35-1.21-.52-2.37-.52Z"/>
      <path class="cls-3" d="M678.96,188.97l-16.53-29.69h7.6l11.58,21.46,11.04-21.46h6.63l-15.72,29.69h-4.6Z"/>
      <path class="cls-3" d="M721.08,164.58v24.38h-6.66v-24.38h-13.12v-5.31h32.95v5.31h-13.18Z"/>
      <path class="cls-3" d="M741.87,180.06h1c.49,0,.83.15,1.03.44.2.29.3.85.3,1.67v4.66c0,.9-.11,1.48-.32,1.74-.22.26-.88.39-2,.39h-4.95c-.49,0-.83-.15-1.03-.45-.2-.3-.3-.86-.3-1.69v-4.66c0-.88.11-1.45.32-1.71.22-.26.88-.39,2-.39h3.95Z"/>
      <path class="cls-3" d="M779.27,188.97v-29.69h6.66v24.1h21.45v5.59h-28.11Z"/>
      <path class="cls-3" d="M824.57,164.58v24.38h-6.66v-24.38h-13.12v-5.31h32.95v5.31h-13.18Z"/>
      <path class="cls-3" d="M846.61,188.97v-29.69h18.4c5.25,0,9.28,1.27,12.11,3.82,2.82,2.55,4.23,6.16,4.23,10.84,0,2.77-.55,5.27-1.65,7.49-1.1,2.22-2.65,3.97-4.65,5.24-1.24.81-2.79,1.39-4.64,1.76-1.85.37-4.22.55-7.1.55h-16.69ZM853.27,183.38h8.6c4.58,0,7.83-.74,9.74-2.22,1.91-1.48,2.87-3.92,2.87-7.33,0-3.03-.79-5.33-2.38-6.9-1.59-1.56-3.93-2.35-7.03-2.35h-11.8v18.79Z"/>
    </g>
    <g id="Keyzotrick">
      <path class="cls-1" d="M130.2,140.26v-55.68h13.07v23.23l30.88-23.23h18.76l-36.88,26.23,41.41,29.45h-20.81l-33.35-24.49v24.49h-13.07Z"/>
      <path class="cls-1" d="M210.36,140.26v-55.68h57.01v9.48h-44.05v12.43h25.71v9.48h-25.71v13.8h44.57v10.48h-57.54Z"/>
      <path class="cls-1" d="M311.57,140.26v-24.92l-28.93-30.76h17.28l19.13,21.39,19.18-21.39h15.23l-28.82,30.45v25.23h-13.07Z"/>
      <path class="cls-1" d="M360.24,140.26v-6.06l38.94-39.67h-35.04v-9.96h55.9v5.53l-39.52,39.67h39.52v10.48h-59.8Z"/>
      <path class="cls-1" d="M439.68,97.75c0-5.06.95-8.52,2.85-10.38s5.55-2.79,10.96-2.79h40.99c5.41,0,9.06.93,10.96,2.79s2.85,5.32,2.85,10.38v29.34c0,5.09-.95,8.56-2.85,10.4-1.9,1.84-5.55,2.77-10.96,2.77h-40.99c-5.41,0-9.06-.92-10.96-2.77-1.9-1.84-2.85-5.31-2.85-10.4v-29.34ZM452.65,129.78h42.73v-35.24h-42.73v35.24Z"/>
      <path class="cls-1" d="M560.85,94.54v45.72h-12.96v-45.72h-25.55v-9.96h64.17v9.96h-25.66Z"/>
      <path class="cls-1" d="M604.13,140.26v-55.68h47.63c4.43,0,7.63.85,9.62,2.56s2.98,4.45,2.98,8.24v13.06c0,3.76-.99,6.5-2.98,8.22-1.98,1.72-5.19,2.58-9.62,2.58h-7.27l25.71,21.02h-18.6l-22.45-21.02h-12.28v21.02h-12.75ZM646.02,94.23h-29.14v15.49h29.14c2.25,0,3.78-.32,4.61-.97s1.24-1.8,1.24-3.45v-6.69c0-1.61-.41-2.75-1.24-3.4-.83-.65-2.36-.97-4.61-.97Z"/>
      <path class="cls-1" d="M690,140.26v-55.68h12.96v55.68h-12.96Z"/>
      <path class="cls-1" d="M777.5,94.54h-34.93v35.24h34.93v-11.96l12.96,2.69v6.59c0,5.09-.96,8.56-2.87,10.4-1.91,1.84-5.56,2.77-10.93,2.77h-33.25c-5.41,0-9.06-.92-10.96-2.77-1.9-1.84-2.85-5.31-2.85-10.4v-29.34c0-5.06.95-8.52,2.85-10.38s5.55-2.79,10.96-2.79h33.25c5.38,0,9.02.93,10.93,2.79s2.87,5.32,2.87,10.38v5.27l-12.96,2.05v-10.54Z"/>
      <path class="cls-1" d="M814.48,140.26v-55.68h13.07v23.23l30.88-23.23h18.76l-36.88,26.23,41.41,29.45h-20.81l-33.35-24.49v24.49h-13.07Z"/>
    </g>
    <g id="Key">
      <polygon class="cls-1" points="57.48 137.09 110.1 84.6 110.1 120.99 93.92 137.09 110.1 153.24 110.1 189.57 57.48 137.09"/>
      <rect class="cls-1" x="31.75" y="84.6" width="25.73" height="104.98"/>
      <path class="cls-1" d="M44.54,0C19.94,0,0,19.94,0,44.54s19.94,44.54,44.54,44.54,44.54-19.94,44.54-44.54S69.14,0,44.54,0ZM44.43,67.66c-12.68,0-22.97-10.28-22.97-22.97s10.28-22.97,22.97-22.97,22.97,10.28,22.97,22.97-10.28,22.97-22.97,22.97Z"/>
    </g>
    <g class="cls-4">
      <path class="cls-1" d="M886.06,71.44h1.37c.46,0,.8.11,1.02.33s.33.53.33.92c0,.18-.03.35-.08.5-.06.15-.14.28-.25.38-.11.11-.25.19-.42.25-.17.06-.36.09-.59.09h-1.37v-2.48ZM884.36,70.06v8.26h1.7v-3.02h1.36l1.55,3.02h1.82v-.08l-1.79-3.37c.23-.1.43-.22.61-.36.18-.14.34-.31.47-.49s.23-.4.29-.64c.07-.24.1-.51.1-.81,0-.41-.07-.77-.21-1.08-.14-.31-.34-.57-.6-.78-.26-.21-.58-.37-.96-.48-.38-.11-.81-.16-1.28-.16h-3.07ZM887.45,65.93c4.57,0,8.26,3.68,8.26,8.26s-3.68,8.26-8.26,8.26-8.26-3.68-8.26-8.26,3.68-8.26,8.26-8.26ZM887.45,63.87c-5.69,0-10.32,4.63-10.32,10.32s4.63,10.32,10.32,10.32,10.32-4.63,10.32-10.32-4.63-10.32-10.32-10.32Z"/>
    </g>
  </g>
</svg>